<mxfile host="app.diagrams.net" agent="Mozilla/5.0 (Windows NT 10.0; Win64; x64) AppleWebKit/537.36 (KHTML, like Gecko) Chrome/134.0.0.0 Safari/537.36" version="26.2.5">
  <diagram name="Page-1" id="f1AWC8eIU-14YvADcXkU">
    <mxGraphModel dx="1556" dy="850" grid="1" gridSize="10" guides="1" tooltips="1" connect="1" arrows="1" fold="1" page="1" pageScale="1" pageWidth="850" pageHeight="1100" math="0" shadow="0">
      <root>
        <mxCell id="0" />
        <mxCell id="1" parent="0" />
        <mxCell id="xuDa41xI-sAGjudpszaS-3" value="" style="edgeStyle=orthogonalEdgeStyle;rounded=0;orthogonalLoop=1;jettySize=auto;html=1;" edge="1" parent="1" source="xuDa41xI-sAGjudpszaS-1" target="xuDa41xI-sAGjudpszaS-2">
          <mxGeometry relative="1" as="geometry" />
        </mxCell>
        <mxCell id="xuDa41xI-sAGjudpszaS-1" value="Client starts" style="rounded=1;whiteSpace=wrap;html=1;" vertex="1" parent="1">
          <mxGeometry x="360" y="110" width="120" height="60" as="geometry" />
        </mxCell>
        <mxCell id="xuDa41xI-sAGjudpszaS-9" value="" style="edgeStyle=orthogonalEdgeStyle;rounded=0;orthogonalLoop=1;jettySize=auto;html=1;" edge="1" parent="1" source="xuDa41xI-sAGjudpszaS-2" target="xuDa41xI-sAGjudpszaS-8">
          <mxGeometry relative="1" as="geometry" />
        </mxCell>
        <mxCell id="xuDa41xI-sAGjudpszaS-11" style="edgeStyle=orthogonalEdgeStyle;rounded=0;orthogonalLoop=1;jettySize=auto;html=1;entryX=1;entryY=0.5;entryDx=0;entryDy=0;" edge="1" parent="1" target="xuDa41xI-sAGjudpszaS-4">
          <mxGeometry relative="1" as="geometry">
            <mxPoint x="310" y="280" as="targetPoint" />
            <mxPoint x="420" y="290" as="sourcePoint" />
          </mxGeometry>
        </mxCell>
        <mxCell id="xuDa41xI-sAGjudpszaS-2" value="Winsock initialization" style="whiteSpace=wrap;html=1;rounded=1;" vertex="1" parent="1">
          <mxGeometry x="360" y="190" width="120" height="60" as="geometry" />
        </mxCell>
        <mxCell id="xuDa41xI-sAGjudpszaS-7" value="" style="edgeStyle=orthogonalEdgeStyle;rounded=0;orthogonalLoop=1;jettySize=auto;html=1;" edge="1" parent="1" source="xuDa41xI-sAGjudpszaS-4" target="xuDa41xI-sAGjudpszaS-6">
          <mxGeometry relative="1" as="geometry" />
        </mxCell>
        <mxCell id="xuDa41xI-sAGjudpszaS-4" value="Listener thread startup" style="whiteSpace=wrap;html=1;rounded=1;" vertex="1" parent="1">
          <mxGeometry x="140" y="260" width="120" height="60" as="geometry" />
        </mxCell>
        <mxCell id="xuDa41xI-sAGjudpszaS-6" value="Listens to, and handles incoming data from server" style="whiteSpace=wrap;html=1;rounded=1;" vertex="1" parent="1">
          <mxGeometry x="140" y="350" width="120" height="60" as="geometry" />
        </mxCell>
        <mxCell id="xuDa41xI-sAGjudpszaS-13" value="" style="edgeStyle=orthogonalEdgeStyle;rounded=0;orthogonalLoop=1;jettySize=auto;html=1;" edge="1" parent="1" source="xuDa41xI-sAGjudpszaS-8" target="xuDa41xI-sAGjudpszaS-12">
          <mxGeometry relative="1" as="geometry" />
        </mxCell>
        <mxCell id="xuDa41xI-sAGjudpszaS-8" value="Create SFML window" style="whiteSpace=wrap;html=1;rounded=1;" vertex="1" parent="1">
          <mxGeometry x="360" y="330" width="120" height="60" as="geometry" />
        </mxCell>
        <mxCell id="xuDa41xI-sAGjudpszaS-16" value="" style="edgeStyle=orthogonalEdgeStyle;rounded=0;orthogonalLoop=1;jettySize=auto;html=1;" edge="1" parent="1" source="xuDa41xI-sAGjudpszaS-12" target="xuDa41xI-sAGjudpszaS-15">
          <mxGeometry relative="1" as="geometry" />
        </mxCell>
        <mxCell id="xuDa41xI-sAGjudpszaS-22" value="" style="edgeStyle=orthogonalEdgeStyle;rounded=0;orthogonalLoop=1;jettySize=auto;html=1;" edge="1" parent="1" source="xuDa41xI-sAGjudpszaS-12" target="xuDa41xI-sAGjudpszaS-21">
          <mxGeometry relative="1" as="geometry" />
        </mxCell>
        <mxCell id="xuDa41xI-sAGjudpszaS-12" value="Request connection from server" style="whiteSpace=wrap;html=1;rounded=1;" vertex="1" parent="1">
          <mxGeometry x="360" y="410" width="120" height="60" as="geometry" />
        </mxCell>
        <mxCell id="xuDa41xI-sAGjudpszaS-14" value="New thread" style="text;html=1;align=center;verticalAlign=middle;whiteSpace=wrap;rounded=0;" vertex="1" parent="1">
          <mxGeometry x="170" y="210" width="60" height="30" as="geometry" />
        </mxCell>
        <mxCell id="xuDa41xI-sAGjudpszaS-15" value="Wait for all threads to complete and terminate" style="whiteSpace=wrap;html=1;rounded=1;" vertex="1" parent="1">
          <mxGeometry x="560" y="410" width="120" height="60" as="geometry" />
        </mxCell>
        <mxCell id="xuDa41xI-sAGjudpszaS-17" value="Connection refused" style="text;html=1;align=center;verticalAlign=middle;whiteSpace=wrap;rounded=0;" vertex="1" parent="1">
          <mxGeometry x="490" y="400" width="60" height="30" as="geometry" />
        </mxCell>
        <mxCell id="xuDa41xI-sAGjudpszaS-18" value="Threadpool manager thread, keeps track and keeps thread that are out of scope alive and ensure they terminate before main thread does." style="rounded=1;whiteSpace=wrap;html=1;" vertex="1" parent="1">
          <mxGeometry x="570" y="245" width="170" height="90" as="geometry" />
        </mxCell>
        <mxCell id="xuDa41xI-sAGjudpszaS-19" value="" style="endArrow=classic;html=1;rounded=0;entryX=0;entryY=0.5;entryDx=0;entryDy=0;" edge="1" parent="1" target="xuDa41xI-sAGjudpszaS-18">
          <mxGeometry width="50" height="50" relative="1" as="geometry">
            <mxPoint x="420" y="290" as="sourcePoint" />
            <mxPoint x="450" y="410" as="targetPoint" />
          </mxGeometry>
        </mxCell>
        <mxCell id="xuDa41xI-sAGjudpszaS-20" value="New thread" style="text;html=1;align=center;verticalAlign=middle;whiteSpace=wrap;rounded=0;" vertex="1" parent="1">
          <mxGeometry x="640" y="200" width="60" height="30" as="geometry" />
        </mxCell>
        <mxCell id="xuDa41xI-sAGjudpszaS-24" value="" style="edgeStyle=orthogonalEdgeStyle;rounded=0;orthogonalLoop=1;jettySize=auto;html=1;" edge="1" parent="1" source="xuDa41xI-sAGjudpszaS-21" target="xuDa41xI-sAGjudpszaS-23">
          <mxGeometry relative="1" as="geometry" />
        </mxCell>
        <mxCell id="xuDa41xI-sAGjudpszaS-21" value="Listen for inputs and update player input accordingly before sending to server" style="whiteSpace=wrap;html=1;rounded=1;" vertex="1" parent="1">
          <mxGeometry x="360" y="500" width="120" height="60" as="geometry" />
        </mxCell>
        <mxCell id="xuDa41xI-sAGjudpszaS-27" value="" style="edgeStyle=orthogonalEdgeStyle;rounded=0;orthogonalLoop=1;jettySize=auto;html=1;" edge="1" parent="1" source="xuDa41xI-sAGjudpszaS-23" target="xuDa41xI-sAGjudpszaS-26">
          <mxGeometry relative="1" as="geometry" />
        </mxCell>
        <mxCell id="xuDa41xI-sAGjudpszaS-23" value="Read latest positional data from server, and render" style="whiteSpace=wrap;html=1;rounded=1;" vertex="1" parent="1">
          <mxGeometry x="360" y="580" width="120" height="60" as="geometry" />
        </mxCell>
        <mxCell id="xuDa41xI-sAGjudpszaS-25" value="" style="endArrow=classic;html=1;rounded=0;exitX=1;exitY=0.5;exitDx=0;exitDy=0;entryX=1;entryY=0.5;entryDx=0;entryDy=0;" edge="1" parent="1" source="xuDa41xI-sAGjudpszaS-23" target="xuDa41xI-sAGjudpszaS-21">
          <mxGeometry width="50" height="50" relative="1" as="geometry">
            <mxPoint x="400" y="460" as="sourcePoint" />
            <mxPoint x="450" y="410" as="targetPoint" />
            <Array as="points">
              <mxPoint x="600" y="610" />
              <mxPoint x="600" y="530" />
            </Array>
          </mxGeometry>
        </mxCell>
        <mxCell id="xuDa41xI-sAGjudpszaS-26" value="Clean up resources, send stop signals to child threads and wait for them to complete, then terminates" style="whiteSpace=wrap;html=1;rounded=1;" vertex="1" parent="1">
          <mxGeometry x="355" y="720" width="130" height="80" as="geometry" />
        </mxCell>
        <mxCell id="xuDa41xI-sAGjudpszaS-28" value="SFML window terminated" style="text;html=1;align=center;verticalAlign=middle;whiteSpace=wrap;rounded=0;" vertex="1" parent="1">
          <mxGeometry x="440" y="660" width="60" height="30" as="geometry" />
        </mxCell>
      </root>
    </mxGraphModel>
  </diagram>
</mxfile>
